<svg xmlns="http://www.w3.org/2000/svg" xmlns:xlink="http://www.w3.org/1999/xlink" width="500" zoomAndPan="magnify" viewBox="0 0 375 374.999991" height="500" preserveAspectRatio="xMidYMid meet" version="1.0"><defs><g/></defs><rect x="-37.5" width="450" fill="#ffffff" y="-37.499999" height="449.999989" fill-opacity="1"/><rect x="-37.5" width="450" fill="#ffffff" y="-37.499999" height="449.999989" fill-opacity="1"/><path fill="#3f5965" d="M 256.46875 350.859375 C 261.160156 349.464844 265.726562 347.863281 270.171875 346.074219 C 193.25 361.296875 115.96875 315.710938 93.199219 239.035156 C 70.429688 162.363281 110.304688 81.984375 183.066406 52.753906 C 178.367188 53.683594 173.664062 54.832031 168.976562 56.222656 C 87.613281 80.382812 41.242188 165.929688 65.40625 247.289062 C 89.566406 328.652344 175.109375 375.019531 256.46875 350.859375 " fill-opacity="1" fill-rule="nonzero"/><path fill="#289db9" d="M 66.0625 311.855469 C 70.140625 315.054688 74.328125 318.015625 78.601562 320.765625 C 18.265625 263.613281 10.265625 168.855469 62.574219 102.148438 C 114.878906 35.441406 208.808594 20.601562 278.703125 65.566406 C 275.011719 62.074219 271.140625 58.710938 267.0625 55.511719 C 196.277344 0.0078125 93.894531 12.398438 38.390625 83.183594 C -17.113281 153.972656 -4.722656 256.351562 66.0625 311.855469 " fill-opacity="1" fill-rule="nonzero"/><path fill="#289db9" d="M 217.523438 304.414062 C 175.542969 293.128906 141.015625 267.960938 117.535156 235.1875 C 136.046875 276.058594 172.027344 308.632812 218.742188 321.1875 C 279.765625 337.589844 342.0625 315.265625 379.550781 269.257812 C 335.957031 305.179688 276.226562 320.191406 217.523438 304.414062 " fill-opacity="1" fill-rule="nonzero"/><g fill="#3f5965" fill-opacity="1"><g transform="translate(95.689634, 219.246014)"><g><path d="M 54.53125 -8.453125 C 52.144531 -5.421875 48.648438 -3.082031 44.046875 -1.4375 C 39.441406 0.195312 34.25 0.96875 28.46875 0.875 C 23.90625 0.84375 19.894531 -0.15625 16.4375 -2.125 C 12.976562 -4.101562 10.253906 -6.941406 8.265625 -10.640625 C 6.273438 -14.347656 5.140625 -18.570312 4.859375 -23.3125 C 4.554688 -27.726562 5.023438 -32.910156 6.265625 -38.859375 C 7.503906 -44.804688 9.628906 -50.019531 12.640625 -54.5 C 15.660156 -58.988281 19.28125 -62.34375 23.5 -64.5625 C 27.726562 -66.78125 32.410156 -67.84375 37.546875 -67.75 C 44.523438 -67.632812 49.988281 -65.671875 53.9375 -61.859375 C 57.882812 -58.046875 60.132812 -52.59375 60.6875 -45.5 L 47.75 -45.53125 C 47.40625 -49.269531 46.40625 -52.023438 44.75 -53.796875 C 43.101562 -55.578125 40.644531 -56.523438 37.375 -56.640625 C 31.707031 -56.828125 27.242188 -54.34375 23.984375 -49.1875 C 20.722656 -44.03125 18.863281 -36.554688 18.40625 -26.765625 C 18.101562 -21.523438 18.90625 -17.46875 20.8125 -14.59375 C 22.726562 -11.71875 25.644531 -10.25 29.5625 -10.1875 C 34.125 -10.0625 38.007812 -11.148438 41.21875 -13.453125 L 43.46875 -24.96875 L 31.265625 -24.96875 L 33.046875 -35.125 L 58.578125 -35.125 Z M 54.53125 -8.453125 "/></g></g></g><g fill="#3f5965" fill-opacity="1"><g transform="translate(153.828836, 219.246014)"><g><path d="M 23.734375 0.921875 C 19.390625 0.890625 15.539062 -0.171875 12.1875 -2.265625 C 8.832031 -4.367188 6.328125 -7.25 4.671875 -10.90625 C 3.023438 -14.5625 2.382812 -18.59375 2.75 -23 L 2.890625 -24.828125 C 3.347656 -29.671875 4.753906 -34.109375 7.109375 -38.140625 C 9.472656 -42.179688 12.503906 -45.296875 16.203125 -47.484375 C 19.910156 -49.671875 24.007812 -50.707031 28.5 -50.59375 C 34.90625 -50.46875 39.75 -48.113281 43.03125 -43.53125 C 46.320312 -38.957031 47.570312 -33.171875 46.78125 -26.171875 L 46.046875 -20.515625 L 15.609375 -20.515625 C 15.484375 -17.304688 16.257812 -14.738281 17.9375 -12.8125 C 19.625 -10.882812 21.921875 -9.890625 24.828125 -9.828125 C 29.546875 -9.703125 33.679688 -11.519531 37.234375 -15.28125 L 43.15625 -7.9375 C 41.28125 -5.125 38.582031 -2.925781 35.0625 -1.34375 C 31.550781 0.226562 27.773438 0.984375 23.734375 0.921875 Z M 27.859375 -39.890625 C 25.472656 -39.953125 23.351562 -39.203125 21.5 -37.640625 C 19.65625 -36.078125 18 -33.367188 16.53125 -29.515625 L 34.34375 -29.515625 L 34.609375 -30.71875 C 34.796875 -31.9375 34.8125 -33.097656 34.65625 -34.203125 C 34.351562 -35.972656 33.601562 -37.351562 32.40625 -38.34375 C 31.21875 -39.34375 29.703125 -39.859375 27.859375 -39.890625 Z M 27.859375 -39.890625 "/></g></g></g><g fill="#3f5965" fill-opacity="1"><g transform="translate(199.162646, 219.246014)"><g><path d="M 28.875 0 C 28.476562 -1.25 28.3125 -2.75 28.375 -4.5 C 24.632812 -0.757812 20.410156 1.046875 15.703125 0.921875 C 11.359375 0.859375 7.753906 -0.554688 4.890625 -3.328125 C 2.023438 -6.097656 0.6875 -9.519531 0.875 -13.59375 C 1.082031 -19.007812 3.351562 -23.160156 7.6875 -26.046875 C 12.019531 -28.941406 17.828125 -30.390625 25.109375 -30.390625 L 31.171875 -30.296875 L 31.8125 -33.28125 C 32 -34.289062 32.046875 -35.253906 31.953125 -36.171875 C 31.796875 -37.609375 31.25 -38.734375 30.3125 -39.546875 C 29.382812 -40.359375 28.15625 -40.78125 26.625 -40.8125 C 24.601562 -40.875 22.890625 -40.375 21.484375 -39.3125 C 20.078125 -38.257812 19.175781 -36.738281 18.78125 -34.75 L 5.78125 -34.703125 C 6 -39.453125 8.179688 -43.300781 12.328125 -46.25 C 16.472656 -49.207031 21.59375 -50.65625 27.6875 -50.59375 C 33.3125 -50.46875 37.710938 -48.789062 40.890625 -45.5625 C 44.078125 -42.332031 45.410156 -38.175781 44.890625 -33.09375 L 41.078125 -9.3125 L 40.859375 -6.375 C 40.796875 -4.207031 41.054688 -2.375 41.640625 -0.875 L 41.59375 0 Z M 18.90625 -9.140625 C 22.644531 -9.015625 25.90625 -10.632812 28.6875 -14 L 30.296875 -22.578125 L 25.796875 -22.625 C 21.023438 -22.507812 17.582031 -21.054688 15.46875 -18.265625 C 14.707031 -17.253906 14.234375 -16.015625 14.046875 -14.546875 C 13.804688 -12.898438 14.148438 -11.59375 15.078125 -10.625 C 16.015625 -9.664062 17.289062 -9.171875 18.90625 -9.140625 Z M 18.90625 -9.140625 "/></g></g></g><g fill="#3f5965" fill-opacity="1"><g transform="translate(244.083375, 219.246014)"><g><path d="M 34.15625 -37.234375 C 32.375 -37.535156 30.921875 -37.6875 29.796875 -37.6875 C 25.171875 -37.8125 21.515625 -36.082031 18.828125 -32.5 L 13.078125 0 L 0.140625 0 L 8.765625 -49.671875 L 20.9375 -49.71875 L 19.734375 -43.65625 C 22.859375 -48.34375 26.71875 -50.6875 31.3125 -50.6875 C 32.59375 -50.6875 34.09375 -50.46875 35.8125 -50.03125 Z M 34.15625 -37.234375 "/></g></g></g><g fill="#289db9" fill-opacity="1"><g transform="translate(270.172165, 217.420133)"><g><path d="M 61.921875 -66.84375 L 54.40625 -22.765625 C 53.363281 -15.390625 50.300781 -9.5625 45.21875 -5.28125 C 40.132812 -1 33.828125 1.082031 26.296875 0.96875 C 21.585938 0.875 17.492188 -0.15625 14.015625 -2.125 C 10.546875 -4.101562 7.984375 -6.890625 6.328125 -10.484375 C 4.679688 -14.085938 4.117188 -18.164062 4.640625 -22.71875 L 12.125 -66.84375 L 25.5625 -66.84375 L 18.09375 -22.671875 C 17.875 -20.960938 17.859375 -19.359375 18.046875 -17.859375 C 18.648438 -12.898438 21.601562 -10.328125 26.90625 -10.140625 C 30.695312 -10.023438 33.800781 -11.066406 36.21875 -13.265625 C 38.632812 -15.472656 40.195312 -18.625 40.90625 -22.71875 L 48.4375 -66.84375 Z M 61.921875 -66.84375 "/></g></g></g><g fill="#289db9" fill-opacity="1"><g transform="translate(326.24684, 217.420133)"><g><path d="M 47.828125 -24.703125 C 47.191406 -19.492188 45.832031 -14.867188 43.75 -10.828125 C 41.664062 -6.796875 39.078125 -3.796875 35.984375 -1.828125 C 32.898438 0.128906 29.472656 1.0625 25.703125 0.96875 C 20.898438 0.84375 17.109375 -0.945312 14.328125 -4.40625 L 9.78125 19.09375 L -3.171875 19.09375 L 8.71875 -49.671875 L 20.65625 -49.71875 L 19.78125 -44.71875 C 23.363281 -48.75 27.585938 -50.703125 32.453125 -50.578125 C 37.316406 -50.460938 41.09375 -48.695312 43.78125 -45.28125 C 46.476562 -41.875 47.921875 -37.25 48.109375 -31.40625 C 48.171875 -29.5 48.078125 -27.265625 47.828125 -24.703125 Z M 34.984375 -25.65625 L 35.25 -30.0625 C 35.3125 -33.03125 34.769531 -35.382812 33.625 -37.125 C 32.476562 -38.875 30.800781 -39.78125 28.59375 -39.84375 C 24.832031 -39.96875 21.726562 -38.378906 19.28125 -35.078125 L 15.5625 -14.59375 C 16.695312 -11.507812 19.128906 -9.90625 22.859375 -9.78125 C 25.984375 -9.6875 28.582031 -10.894531 30.65625 -13.40625 C 32.738281 -15.914062 34.179688 -20 34.984375 -25.65625 Z M 34.984375 -25.65625 "/></g></g></g><g fill="#289db9" fill-opacity="1"><g transform="translate(154.114185, 252.296632)"><g><path d="M -1.6875 0 L 11.046875 -21.6875 L 14.8125 -21.6875 L 18.34375 0 L 15 0 L 14.3125 -4.734375 L 4.515625 -4.734375 L 1.8125 0 Z M 5.96875 -7.34375 L 13.96875 -7.34375 L 12.375 -18.609375 Z M 5.96875 -7.34375 "/></g></g></g><g fill="#289db9" fill-opacity="1"><g transform="translate(174.465653, 252.296632)"><g><path d="M 5.84375 6.171875 C 4.476562 6.171875 3.238281 5.84375 2.125 5.1875 C 1.007812 4.539062 0.257812 3.65625 -0.125 2.53125 L 2.796875 1.71875 C 2.898438 2.238281 3.222656 2.710938 3.765625 3.140625 C 4.304688 3.578125 5.066406 3.796875 6.046875 3.796875 C 7.191406 3.796875 8.097656 3.59375 8.765625 3.1875 C 9.429688 2.789062 9.9375 2.242188 10.28125 1.546875 C 10.632812 0.859375 10.910156 0.09375 11.109375 -0.75 L 11.53125 -2.59375 C 10.988281 -1.90625 10.328125 -1.382812 9.546875 -1.03125 C 8.765625 -0.6875 7.953125 -0.515625 7.109375 -0.515625 C 6.109375 -0.515625 5.144531 -0.757812 4.21875 -1.25 C 3.289062 -1.738281 2.523438 -2.476562 1.921875 -3.46875 C 1.328125 -4.46875 1.03125 -5.710938 1.03125 -7.203125 C 1.03125 -8.867188 1.335938 -10.398438 1.953125 -11.796875 C 2.578125 -13.191406 3.457031 -14.3125 4.59375 -15.15625 C 5.726562 -16 7.078125 -16.421875 8.640625 -16.421875 C 9.785156 -16.421875 10.832031 -16.164062 11.78125 -15.65625 C 12.738281 -15.15625 13.421875 -14.460938 13.828125 -13.578125 L 15.125 -16.109375 L 17.140625 -16.109375 C 16.617188 -13.679688 16.101562 -11.253906 15.59375 -8.828125 C 15.09375 -6.398438 14.582031 -3.96875 14.0625 -1.53125 C 13.945312 -1.050781 13.8125 -0.476562 13.65625 0.1875 C 13.507812 0.863281 13.28125 1.546875 12.96875 2.234375 C 12.65625 2.929688 12.210938 3.578125 11.640625 4.171875 C 11.066406 4.765625 10.304688 5.242188 9.359375 5.609375 C 8.421875 5.984375 7.25 6.171875 5.84375 6.171875 Z M 8.046875 -2.890625 C 9.066406 -2.890625 9.941406 -3.226562 10.671875 -3.90625 C 11.410156 -4.59375 11.976562 -5.445312 12.375 -6.46875 C 12.78125 -7.5 12.984375 -8.546875 12.984375 -9.609375 C 12.984375 -11.054688 12.582031 -12.15625 11.78125 -12.90625 C 10.976562 -13.65625 10.039062 -14.03125 8.96875 -14.03125 C 7.863281 -14.03125 6.9375 -13.703125 6.1875 -13.046875 C 5.4375 -12.398438 4.867188 -11.566406 4.484375 -10.546875 C 4.109375 -9.535156 3.921875 -8.46875 3.921875 -7.34375 C 3.921875 -5.957031 4.300781 -4.867188 5.0625 -4.078125 C 5.820312 -3.285156 6.816406 -2.890625 8.046875 -2.890625 Z M 8.046875 -2.890625 "/></g></g></g><g fill="#289db9" fill-opacity="1"><g transform="translate(192.480116, 252.296632)"><g><path d="M 7.734375 0.390625 C 5.609375 0.390625 3.929688 -0.222656 2.703125 -1.453125 C 1.484375 -2.691406 0.875 -4.363281 0.875 -6.46875 C 0.875 -8.34375 1.242188 -10.023438 1.984375 -11.515625 C 2.734375 -13.015625 3.796875 -14.195312 5.171875 -15.0625 C 6.546875 -15.925781 8.164062 -16.359375 10.03125 -16.359375 C 11.476562 -16.359375 12.675781 -16.066406 13.625 -15.484375 C 14.582031 -14.898438 15.304688 -14.101562 15.796875 -13.09375 C 16.285156 -12.09375 16.53125 -10.972656 16.53125 -9.734375 C 16.53125 -8.960938 16.429688 -8.15625 16.234375 -7.3125 L 3.765625 -7.3125 C 3.742188 -7.15625 3.734375 -7 3.734375 -6.84375 C 3.734375 -6.695312 3.734375 -6.546875 3.734375 -6.390625 C 3.734375 -5.285156 3.941406 -4.414062 4.359375 -3.78125 C 4.785156 -3.144531 5.332031 -2.691406 6 -2.421875 C 6.675781 -2.148438 7.359375 -2.015625 8.046875 -2.015625 C 8.960938 -2.015625 9.742188 -2.160156 10.390625 -2.453125 C 11.035156 -2.742188 11.585938 -3.128906 12.046875 -3.609375 L 14.578125 -2.828125 C 13.835938 -1.867188 12.898438 -1.09375 11.765625 -0.5 C 10.628906 0.09375 9.285156 0.390625 7.734375 0.390625 Z M 4.15625 -9.515625 L 13.671875 -9.515625 C 13.691406 -9.617188 13.703125 -9.710938 13.703125 -9.796875 C 13.703125 -9.890625 13.703125 -9.976562 13.703125 -10.0625 C 13.703125 -10.71875 13.566406 -11.347656 13.296875 -11.953125 C 13.023438 -12.554688 12.59375 -13.050781 12 -13.4375 C 11.40625 -13.832031 10.617188 -14.03125 9.640625 -14.03125 C 8.835938 -14.03125 8.054688 -13.851562 7.296875 -13.5 C 6.546875 -13.15625 5.890625 -12.644531 5.328125 -11.96875 C 4.765625 -11.300781 4.375 -10.484375 4.15625 -9.515625 Z M 4.15625 -9.515625 "/></g></g></g><g fill="#289db9" fill-opacity="1"><g transform="translate(210.072619, 252.296632)"><g><path d="M 0.265625 0 L 3.671875 -16.109375 L 5.75 -16.109375 L 5.9375 -13.859375 C 6.476562 -14.554688 7.1875 -15.144531 8.0625 -15.625 C 8.945312 -16.113281 10.113281 -16.359375 11.5625 -16.359375 C 12.925781 -16.359375 13.988281 -15.988281 14.75 -15.25 C 15.519531 -14.519531 15.90625 -13.382812 15.90625 -11.84375 C 15.90625 -11.113281 15.8125 -10.269531 15.625 -9.3125 L 13.609375 0 L 10.84375 0 L 12.765625 -9.0625 C 12.953125 -10.007812 13.046875 -10.785156 13.046875 -11.390625 C 13.046875 -12.347656 12.828125 -13.015625 12.390625 -13.390625 C 11.960938 -13.773438 11.285156 -13.96875 10.359375 -13.96875 C 9.578125 -13.96875 8.816406 -13.789062 8.078125 -13.4375 C 7.347656 -13.09375 6.695312 -12.507812 6.125 -11.6875 C 5.550781 -10.863281 5.113281 -9.75 4.8125 -8.34375 L 3.046875 0 Z M 0.265625 0 "/></g></g></g><g fill="#289db9" fill-opacity="1"><g transform="translate(227.924785, 252.296632)"><g><path d="M 7.203125 0.390625 C 5.191406 0.390625 3.628906 -0.203125 2.515625 -1.390625 C 1.398438 -2.585938 0.84375 -4.203125 0.84375 -6.234375 C 0.84375 -8.078125 1.203125 -9.757812 1.921875 -11.28125 C 2.648438 -12.8125 3.679688 -14.039062 5.015625 -14.96875 C 6.347656 -15.894531 7.898438 -16.359375 9.671875 -16.359375 C 11.148438 -16.359375 12.382812 -16.050781 13.375 -15.4375 C 14.375 -14.820312 15.144531 -13.929688 15.6875 -12.765625 L 12.984375 -11.8125 C 12.765625 -12.46875 12.34375 -12.988281 11.71875 -13.375 C 11.09375 -13.769531 10.367188 -13.96875 9.546875 -13.96875 C 8.304688 -13.96875 7.265625 -13.609375 6.421875 -12.890625 C 5.578125 -12.171875 4.929688 -11.238281 4.484375 -10.09375 C 4.046875 -8.945312 3.828125 -7.710938 3.828125 -6.390625 C 3.828125 -5.160156 4.125 -4.125 4.71875 -3.28125 C 5.3125 -2.4375 6.347656 -2.015625 7.828125 -2.015625 C 8.710938 -2.015625 9.484375 -2.203125 10.140625 -2.578125 C 10.804688 -2.960938 11.375 -3.476562 11.84375 -4.125 L 14.15625 -3.21875 C 13.414062 -2.019531 12.4375 -1.117188 11.21875 -0.515625 C 10 0.0859375 8.660156 0.390625 7.203125 0.390625 Z M 7.203125 0.390625 "/></g></g></g><g fill="#289db9" fill-opacity="1"><g transform="translate(243.991726, 252.296632)"><g><path d="M -2.015625 5.234375 L -1.5 2.796875 L -0.390625 2.796875 C 0.492188 2.796875 1.164062 2.726562 1.625 2.59375 C 2.082031 2.46875 2.457031 2.203125 2.75 1.796875 C 3.039062 1.398438 3.378906 0.800781 3.765625 0 L 1.390625 -16.109375 L 4.28125 -16.109375 L 5.578125 -3.578125 L 12.265625 -16.109375 L 15.515625 -16.109375 L 6.203125 0.6875 C 5.660156 1.675781 5.179688 2.46875 4.765625 3.0625 C 4.359375 3.664062 3.929688 4.125 3.484375 4.4375 C 3.046875 4.75 2.503906 4.957031 1.859375 5.0625 C 1.222656 5.175781 0.398438 5.234375 -0.609375 5.234375 Z M -2.015625 5.234375 "/></g></g></g></svg>